{"title":"M.O - For A Minute [Music Video] 1080p [Sbyky]","uid":9922193,"size":79085599,"categoryP":"video","categoryS":"music_videos","magnet":"?xt=urn:btih:7f54d9065bc5959fd5698fe1a4dcb643dbd03e51&amp;dn=M.O+-+For+A+Minute+%5BMusic+Video%5D+1080p+%5BSbyky%5D&amp;tr=udp%3A%2F%2Ftracker.openbittorrent.com%3A80&amp;tr=udp%3A%2F%2Fopen.demonii.com%3A1337&amp;tr=udp%3A%2F%2Ftracker.coppersurfer.tk%3A6969&amp;tr=udp%3A%2F%2Fexodus.desync.com%3A6969","seeders":1,"leechers":1,"uploader":"Sbyky","files":1,"time":1397011316,"description":"\n\nGeneral\nComplete name                            : M.O - For A Minute [Music Video] 1080p [Sbyky].MP4\nFormat                                   : MPEG-4\nFormat profile                           : Base Media\nCodec ID                                 : isom\nFile size                                : 75.4 MiB\nDuration                                 : 2mn 56s\nOverall bit rate mode                    : Variable\nOverall bit rate                         : 3 579 Kbps\nEncoded date                             : UTC 2014-03-01 10:36:34\nTagged date                              : UTC 2014-03-01 10:36:34\n\nVideo\nID                                       : 1\nFormat                                   : AVC\nFormat/Info                              : Advanced Video Codec\nFormat profile                           : &lt;a class=&quot;__cf_email__&quot; href=&quot;/cdn-cgi/l/email-protection&quot; data-cfemail=&quot;eca4858b84aca0d8c2dc&quot;&gt;[email&amp;#160;protected]&lt;/a&gt;&lt;script cf-hash='f9e31' type=&quot;text/javascript&quot;&gt;\n/* &lt;![CDATA[ */!function(){try{var t=&quot;currentScript&quot;in document?document.currentScript:function(){for(var t=document.getElementsByTagName(&quot;script&quot;),e=t.length;e--;)if(t[e].getAttribute(&quot;cf-hash&quot;))return t[e]}();if(t&amp;&amp;t.previousSibling){var e,r,n,i,c=t.previousSibling,a=c.getAttribute(&quot;data-cfemail&quot;);if(a){for(e=&quot;&quot;,r=parseInt(a.substr(0,2),16),n=2;a.length-n;n+=2)i=parseInt(a.substr(n,2),16)^r,e+=String.fromCharCode(i);e=document.createTextNode(e),c.parentNode.replaceChild(e,c)}}}catch(u){}}();/* ]]&gt; */&lt;/script&gt;\nFormat settings, CABAC                   : Yes\nFormat settings, ReFrames                : 3 frames\nCodec ID                                 : avc1\nCodec ID/Info                            : Advanced Video Coding\nDuration                                 : 2mn 56s\nDuration_LastFrame                       : -39ms\nBit rate                                 : 3 452 Kbps\nWidth                                    : 1 920 pixels\nHeight                                   : 1 080 pixels\nDisplay aspect ratio                     : 16:9\nFrame rate mode                          : Constant\nFrame rate                               : 25.000 fps\nColor space                              : YUV\nChroma subsampling                       : 4:2:0\nBit depth                                : 8 bits\nScan type                                : Progressive\nBits/(Pixel*Frame)                       : 0.067\nStream size                              : 72.7 MiB (96%)\nEncoded date                             : UTC 2014-03-01 10:36:34\nTagged date                              : UTC 2014-03-01 10:36:34\n\nAudio\nID                                       : 2\nFormat                                   : AAC\nFormat/Info                              : Advanced Audio Codec\nFormat profile                           : LC\nCodec ID                                 : 40\nDuration                                 : 2mn 56s\nBit rate mode                            : Variable\nBit rate                                 : 126 Kbps\nChannel(s)                               : 2 channels\nChannel positions                        : Front: L R\nSampling rate                            : 44.1 KHz\nCompression mode                         : Lossy\nStream size                              : 2.65 MiB (4%)\nEncoded date                             : UTC 2014-03-01 10:34:56\nTagged date                              : UTC 2014-03-01 10:34:56\n\nShared By Sbyky\n","torrent":{"xt":"urn:btih:7f54d9065bc5959fd5698fe1a4dcb643dbd03e51","amp;dn":"M.O+-+For+A+Minute+%5BMusic+Video%5D+1080p+%5BSbyky%5D","amp;tr":["udp%3A%2F%2Ftracker.openbittorrent.com%3A80","udp%3A%2F%2Fopen.demonii.com%3A1337","udp%3A%2F%2Ftracker.coppersurfer.tk%3A6969","udp%3A%2F%2Fexodus.desync.com%3A6969"],"infoHash":"7f54d9065bc5959fd5698fe1a4dcb643dbd03e51","infoHashBuffer":{"type":"Buffer","data":[127,84,217,6,91,197,149,159,213,105,143,225,164,220,182,67,219,208,62,81]},"announce":[],"urlList":[]}}